<?xml version="1.0" encoding="UTF-8" standalone="no"?>
<svg
   xmlns:dc="http://purl.org/dc/elements/1.1/"
   xmlns:cc="http://creativecommons.org/ns#"
   xmlns:rdf="http://www.w3.org/1999/02/22-rdf-syntax-ns#"
   xmlns:svg="http://www.w3.org/2000/svg"
   xmlns="http://www.w3.org/2000/svg"
   xmlns:sodipodi="http://sodipodi.sourceforge.net/DTD/sodipodi-0.dtd"
   xmlns:inkscape="http://www.inkscape.org/namespaces/inkscape"
   width="80mm"
   height="140mm"
   version="1.1"
   viewBox="0 0 80 140"
   id="svg2"
   inkscape:version="0.91 r13725"
   sodipodi:docname="O_C_blank_spacer.svg">
  <metadata
     id="metadata68">
    <rdf:RDF>
      <cc:Work
         rdf:about="">
        <dc:format>image/svg+xml</dc:format>
        <dc:type
           rdf:resource="http://purl.org/dc/dcmitype/StillImage" />
        <dc:title />
      </cc:Work>
    </rdf:RDF>
  </metadata>
  <sodipodi:namedview
     pagecolor="#ffffff"
     bordercolor="#666666"
     borderopacity="1"
     objecttolerance="10"
     gridtolerance="10"
     guidetolerance="10"
     inkscape:pageopacity="0"
     inkscape:pageshadow="2"
     inkscape:window-width="1347"
     inkscape:window-height="771"
     id="namedview66"
     showgrid="false"
     width="120mm"
     inkscape:zoom="1.1083866"
     inkscape:cx="-30.685084"
     inkscape:cy="227.4803"
     inkscape:window-x="0"
     inkscape:window-y="0"
     inkscape:window-maximized="0"
     inkscape:current-layer="svg2" />
  <desc
     id="desc4">Created with the Front Panel Designer by the export of the file 'O_C_blank_spacer.fpd'.</desc>
  <defs
     id="defs6">
    <pattern
       id="revside-fill"
       x="1"
       y="1"
       width="1.5"
       height="1.5"
       patternUnits="userSpaceOnUse">
      <line
         x1="0"
         y1="0"
         x2="1"
         y2="1"
         style="stroke-width:0.2; stroke:black; stroke-dasharray:none;"
         id="line9" />
      <line
         x1="0"
         y1="1"
         x2="1"
         y2="0"
         style="stroke-width:0.2; stroke:black; stroke-dasharray:none;"
         id="line11" />
    </pattern>
    <pattern
       id="revside-fill-e0e0e0"
       x="1"
       y="1"
       width="1.5"
       height="1.5"
       patternUnits="userSpaceOnUse">
      <line
         x1="0"
         y1="0"
         x2="1.5"
         y2="1.5"
         style="stroke-width:0.2; stroke:#e0e0e0; stroke-dasharray:none;"
         id="line14" />
      <line
         x1="0"
         y1="1.5"
         x2="1.5"
         y2="0"
         style="stroke-width:0.2; stroke:#e0e0e0; stroke-dasharray:none;"
         id="line16" />
    </pattern>
  </defs>
  <g
     transform="matrix(1,0,0,-1,4.8378625,133.37976)"
     style="fill-rule:evenodd;stroke-linecap:round;stroke-linejoin:round;stroke-opacity:1;stroke-width:0.28222222;stroke-miterlimit:4;stroke-dasharray:none"
     id="g18">
    <path
       d="m 70.78,128.4 -70.78,0 0,0 L 0,0 l 0,0 70.78,0 0,0 0,128.4 0,0 z"
       vector-effect="non-scaling-stroke"
       id="path20"
       inkscape:connector-curvature="0"
       style="fill:#ffffff;stroke:#000000;stroke-width:0.28222222;stroke-miterlimit:4;stroke-dasharray:none" />
    <circle
       cx="8.5"
       cy="35"
       r="3.1500001"
       vector-effect="non-scaling-stroke"
       id="circle22"
       style="fill:#ffffff;stroke:#000000;stroke-width:0.28222222;stroke-miterlimit:4;stroke-dasharray:none" />
    <circle
       cx="18"
       cy="35"
       r="3.1500001"
       vector-effect="non-scaling-stroke"
       id="circle24"
       style="fill:#ffffff;stroke:#000000;stroke-width:0.28222222;stroke-miterlimit:4;stroke-dasharray:none" />
    <circle
       cx="27.5"
       cy="35"
       r="3.1500001"
       vector-effect="non-scaling-stroke"
       id="circle26"
       style="fill:#ffffff;stroke:#000000;stroke-width:0.28222222;stroke-miterlimit:4;stroke-dasharray:none" />
    <circle
       cx="37"
       cy="35"
       r="3.1500001"
       vector-effect="non-scaling-stroke"
       id="circle28"
       style="fill:#ffffff;stroke:#000000;stroke-width:0.28222222;stroke-miterlimit:4;stroke-dasharray:none" />
    <circle
       cx="52"
       cy="35"
       r="3.1500001"
       vector-effect="non-scaling-stroke"
       id="circle30"
       style="fill:#ffffff;stroke:#000000;stroke-width:0.28222222;stroke-miterlimit:4;stroke-dasharray:none" />
    <circle
       cx="61.5"
       cy="35"
       r="3.1500001"
       vector-effect="non-scaling-stroke"
       id="circle32"
       style="fill:#ffffff;stroke:#000000;stroke-width:0.28222222;stroke-miterlimit:4;stroke-dasharray:none" />
    <circle
       cx="8.5"
       cy="23"
       r="3.1500001"
       vector-effect="non-scaling-stroke"
       id="circle34"
       style="fill:#ffffff;stroke:#000000;stroke-width:0.28222222;stroke-miterlimit:4;stroke-dasharray:none" />
    <circle
       cx="18"
       cy="23"
       r="3.1500001"
       vector-effect="non-scaling-stroke"
       id="circle36"
       style="fill:#ffffff;stroke:#000000;stroke-width:0.28222222;stroke-miterlimit:4;stroke-dasharray:none" />
    <circle
       cx="27.5"
       cy="23"
       r="3.1500001"
       vector-effect="non-scaling-stroke"
       id="circle38"
       style="fill:#ffffff;stroke:#000000;stroke-width:0.28222222;stroke-miterlimit:4;stroke-dasharray:none" />
    <circle
       cx="37"
       cy="23"
       r="3.1500001"
       vector-effect="non-scaling-stroke"
       id="circle40"
       style="fill:#ffffff;stroke:#000000;stroke-width:0.28222222;stroke-miterlimit:4;stroke-dasharray:none" />
    <circle
       cx="52"
       cy="23"
       r="3.1500001"
       vector-effect="non-scaling-stroke"
       id="circle42"
       style="fill:#ffffff;stroke:#000000;stroke-width:0.28222222;stroke-miterlimit:4;stroke-dasharray:none" />
    <circle
       cx="61.5"
       cy="23"
       r="3.1500001"
       vector-effect="non-scaling-stroke"
       id="circle44"
       style="fill:#ffffff;stroke:#000000;stroke-width:0.28222222;stroke-miterlimit:4;stroke-dasharray:none" />
    <circle
       cx="56.799999"
       cy="66.5"
       r="4.5"
       vector-effect="non-scaling-stroke"
       id="circle46"
       style="fill:#ffffff;stroke:#000000;stroke-width:0.28222222;stroke-miterlimit:4;stroke-dasharray:none" />
    <circle
       cx="12.9"
       cy="66.5"
       r="4.5"
       vector-effect="non-scaling-stroke"
       id="circle48"
       style="fill:#ffffff;stroke:#000000;stroke-width:0.28222222;stroke-miterlimit:4;stroke-dasharray:none" />
    <circle
       cx="56.799999"
       cy="90.599998"
       r="3.3489792"
       vector-effect="non-scaling-stroke"
       id="circle50"
       style="fill:#ffffff;stroke:#000000;stroke-width:0.25204167;stroke-miterlimit:4;stroke-dasharray:none" />
    <circle
       cx="56.799999"
       cy="109.4"
       r="3.3489792"
       vector-effect="non-scaling-stroke"
       id="circle52"
       style="fill:#ffffff;stroke:#000000;stroke-width:0.25204167;stroke-miterlimit:4;stroke-dasharray:none" />
    <rect
       x="7.684"
       y="91.628998"
       width="33"
       height="17.5"
       rx="1.5"
       vector-effect="non-scaling-stroke"
       id="rect54"
       style="fill:#ffffff;stroke:#000000;stroke-width:0.28222222;stroke-miterlimit:4;stroke-dasharray:none" />
    <path
       d="M 4.538,3.907 A 1.2,1.2 0 0 0 5.684,4.75 l 3.532,0 a 1.2,1.2 0 0 0 1.146,-0.843 3.05,3.05 0 0 0 0,-1.814 A 1.2,1.2 0 0 0 9.216,1.25 l -3.532,0 a 1.2,1.2 0 0 0 -1.146,0.843 3.05,3.05 0 0 0 0,1.814 z"
       vector-effect="non-scaling-stroke"
       id="path56"
       inkscape:connector-curvature="0"
       style="fill:#ffffff;stroke:#000000;stroke-width:0.28222222;stroke-miterlimit:4;stroke-dasharray:none" />
    <path
       d="m 4.538,126.307 a 1.2,1.2 0 0 0 1.146,0.843 l 3.532,0 a 1.2,1.2 0 0 0 1.146,-0.843 3.05,3.05 0 0 0 0,-1.814 1.2,1.2 0 0 0 -1.146,-0.843 l -3.532,0 a 1.2,1.2 0 0 0 -1.146,0.843 3.05,3.05 0 0 0 0,1.814 z"
       vector-effect="non-scaling-stroke"
       id="path58"
       inkscape:connector-curvature="0"
       style="fill:#ffffff;stroke:#000000;stroke-width:0.28222222;stroke-miterlimit:4;stroke-dasharray:none" />
    <path
       d="m 60.418,3.907 a 1.2,1.2 0 0 0 1.146,0.843 l 3.532,0 a 1.2,1.2 0 0 0 1.146,-0.843 3.05,3.05 0 0 0 0,-1.814 1.2,1.2 0 0 0 -1.146,-0.843 l -3.532,0 a 1.2,1.2 0 0 0 -1.146,0.843 3.05,3.05 0 0 0 0,1.814 z"
       vector-effect="non-scaling-stroke"
       id="path60"
       inkscape:connector-curvature="0"
       style="fill:#ffffff;stroke:#000000;stroke-width:0.28222222;stroke-miterlimit:4;stroke-dasharray:none" />
    <path
       d="m 60.418,126.307 a 1.2,1.2 0 0 0 1.146,0.843 l 3.532,0 a 1.2,1.2 0 0 0 1.146,-0.843 3.05,3.05 0 0 0 0,-1.814 1.2,1.2 0 0 0 -1.146,-0.843 l -3.532,0 a 1.2,1.2 0 0 0 -1.146,0.843 3.05,3.05 0 0 0 0,1.814 z"
       vector-effect="non-scaling-stroke"
       id="path62"
       inkscape:connector-curvature="0"
       style="fill:#ffffff;stroke:#000000;stroke-width:0.28222222;stroke-miterlimit:4;stroke-dasharray:none" />
    <circle
       cx="46.299999"
       cy="109.397"
       r="1.551"
       vector-effect="non-scaling-stroke"
       id="circle64"
       style="fill:#ffffff;stroke:#000000;stroke-width:0.28222222;stroke-miterlimit:4;stroke-dasharray:none" />
  </g>
</svg>
